<svg width="897" height="300" viewBox="0 0 897 300" fill="none" xmlns="http://www.w3.org/2000/svg">
<path d="M326.736 123.4H354.864C355.216 123.4 355.52 123.528 355.776 123.784C356.032 124.04 356.16 124.344 356.16 124.696V132.424C356.16 132.776 356.032 133.08 355.776 133.336C355.52 133.592 355.216 133.72 354.864 133.72H346.896V155.704C346.896 156.056 346.768 156.36 346.512 156.616C346.256 156.872 345.952 157 345.6 157H336C335.648 157 335.344 156.872 335.088 156.616C334.832 156.36 334.704 156.056 334.704 155.704V133.72H326.736C326.384 133.72 326.08 133.592 325.824 133.336C325.568 133.08 325.44 132.776 325.44 132.424V124.696C325.44 124.344 325.568 124.04 325.824 123.784C326.08 123.528 326.384 123.4 326.736 123.4ZM381.801 123.4H391.209C391.561 123.4 391.865 123.528 392.121 123.784C392.377 124.04 392.505 124.344 392.505 124.696V155.704C392.505 156.056 392.377 156.36 392.121 156.616C391.865 156.872 391.561 157 391.209 157H381.801C381.449 157 381.145 156.872 380.889 156.616C380.633 156.36 380.505 156.056 380.505 155.704V145.336H372.729V155.704C372.729 156.056 372.601 156.36 372.345 156.616C372.089 156.872 371.785 157 371.433 157H362.025C361.673 157 361.369 156.888 361.113 156.664C360.857 156.408 360.729 156.088 360.729 155.704V124.696C360.729 124.344 360.857 124.04 361.113 123.784C361.369 123.528 361.673 123.4 362.025 123.4H371.433C371.785 123.4 372.089 123.528 372.345 123.784C372.601 124.04 372.729 124.344 372.729 124.696V134.776H380.505V124.696C380.505 124.344 380.633 124.04 380.889 123.784C381.145 123.528 381.449 123.4 381.801 123.4ZM410.265 147.64H425.049C425.401 147.64 425.705 147.768 425.961 148.024C426.217 148.28 426.345 148.584 426.345 148.936V155.704C426.345 156.056 426.217 156.36 425.961 156.616C425.705 156.872 425.401 157 425.049 157H400.041C399.689 157 399.385 156.872 399.129 156.616C398.873 156.36 398.745 156.056 398.745 155.704V124.696C398.745 124.344 398.873 124.04 399.129 123.784C399.385 123.528 399.689 123.4 400.041 123.4H424.665C425.017 123.4 425.321 123.528 425.577 123.784C425.833 124.04 425.961 124.344 425.961 124.696V131.464C425.961 131.816 425.833 132.12 425.577 132.376C425.321 132.632 425.017 132.76 424.665 132.76H410.265V135.784H423.609C423.961 135.784 424.265 135.912 424.521 136.168C424.777 136.424 424.905 136.728 424.905 137.08V143.32C424.905 143.672 424.777 143.976 424.521 144.232C424.265 144.488 423.961 144.616 423.609 144.616H410.265V147.64Z" fill="url(#paint0_linear_0_1)"/>
<path d="M490.372 70.2H513.436C514.18 70.2 514.8 70.4893 515.296 71.068C515.875 71.564 516.164 72.06 516.164 72.556C516.164 73.052 516.123 73.4653 516.04 73.796L492.728 152.908C491.984 155.636 490.124 157 487.148 157H458.876C455.9 157 454.04 155.636 453.296 152.908L429.984 73.796C429.901 73.4653 429.86 73.052 429.86 72.556C429.86 72.06 430.108 71.564 430.604 71.068C431.183 70.4893 431.844 70.2 432.588 70.2H455.652C458.628 70.2 460.488 71.564 461.232 74.292L473.012 120.42L484.792 74.292C485.536 71.564 487.396 70.2 490.372 70.2ZM589.645 132.076H552.693V132.696C552.693 137.739 554.305 140.26 557.529 140.26C558.438 140.26 559.554 139.599 560.877 138.276C562.199 136.953 563.646 136.292 565.217 136.292H588.653C590.471 136.292 591.381 137.201 591.381 139.02C591.381 143.071 588.322 147.287 582.205 151.668C576.17 156.049 567.945 158.24 557.529 158.24C547.195 158.24 538.722 155.553 532.109 150.18C525.578 144.724 522.313 137.243 522.313 127.736V121.784C522.313 112.773 525.661 105.457 532.357 99.836C539.053 94.132 547.815 91.28 558.645 91.28C569.557 91.28 577.989 94.4627 583.941 100.828C589.975 107.193 592.993 115.253 592.993 125.008V128.728C592.993 129.637 592.662 130.423 592.001 131.084C591.339 131.745 590.554 132.076 589.645 132.076ZM562.613 116.08C562.613 111.12 560.959 108.64 557.653 108.64C554.346 108.64 552.693 111.12 552.693 116.08V116.576H562.613V116.08ZM601.629 126.124V119.8C601.629 110.541 604.109 103.473 609.069 98.596C614.029 93.7187 620.353 91.28 628.041 91.28C635.729 91.28 641.805 94.0907 646.269 99.712V95.868C646.269 94.9587 646.6 94.1733 647.261 93.512C647.922 92.8507 648.708 92.52 649.617 92.52H671.317C672.226 92.52 673.012 92.8507 673.673 93.512C674.334 94.1733 674.665 94.9587 674.665 95.868L674.789 154.892C674.789 164.812 671.565 172.169 665.117 176.964C658.669 181.841 650.196 184.28 639.697 184.28C633.166 184.28 627.338 183.371 622.213 181.552C617.088 179.816 613.244 177.667 610.681 175.104C605.473 169.979 602.869 165.639 602.869 162.084C602.869 161.175 603.2 160.389 603.861 159.728C604.522 159.067 605.308 158.736 606.217 158.736H630.397C631.885 158.736 633.084 159.645 633.993 161.464C634.985 163.365 636.68 164.316 639.077 164.316C642.632 164.316 644.409 162.084 644.409 157.62V148.816C640.358 152.371 634.613 154.148 627.173 154.148C619.816 154.148 613.698 151.916 608.821 147.452C604.026 142.988 601.629 135.879 601.629 126.124ZM638.209 132.572C642.094 132.572 644.161 130.505 644.409 126.372V119.676C644.161 115.543 642.094 113.476 638.209 113.476C634.076 113.476 632.009 115.873 632.009 120.668V125.38C632.009 130.175 634.076 132.572 638.209 132.572ZM685.305 138.524C685.305 127.364 694.357 120.213 712.461 117.072L725.605 114.964C725.605 112.484 725.398 110.831 724.985 110.004C724.572 109.095 723.58 108.64 722.009 108.64C720.521 108.64 719.033 109.301 717.545 110.624C716.057 111.947 714.652 112.608 713.329 112.608H692.249C690.43 112.608 689.521 111.74 689.521 110.004C689.521 108.185 690.141 106.284 691.381 104.3C692.704 102.233 694.564 100.208 696.961 98.224C699.441 96.24 702.872 94.5867 707.253 93.264C711.717 91.9413 716.677 91.28 722.133 91.28C733.21 91.28 741.518 93.5947 747.057 98.224C752.596 102.853 755.365 109.467 755.365 118.064V153.652C755.365 154.561 755.034 155.347 754.373 156.008C753.712 156.669 752.926 157 752.017 157H730.317C729.408 157 728.622 156.669 727.961 156.008C727.3 155.347 726.969 154.561 726.969 153.652V150.18C723.084 155.553 717.421 158.24 709.981 158.24C702.541 158.24 696.548 156.38 692.001 152.66C687.537 148.857 685.305 144.145 685.305 138.524ZM717.917 139.888C723.29 139.888 725.977 136.664 725.977 130.216L718.661 131.828C715.024 132.655 713.205 134.184 713.205 136.416C713.205 137.408 713.618 138.235 714.445 138.896C715.272 139.557 716.429 139.888 717.917 139.888ZM840.123 119.428V153.652C840.123 154.561 839.792 155.347 839.131 156.008C838.469 156.669 837.684 157 836.775 157H813.091C812.181 157 811.396 156.669 810.735 156.008C810.073 155.347 809.743 154.561 809.743 153.652V120.296C809.743 115.749 807.676 113.476 803.543 113.476C799.409 113.476 797.343 115.749 797.343 120.296V153.652C797.343 154.561 797.012 155.347 796.351 156.008C795.689 156.669 794.904 157 793.995 157H770.435C769.525 157 768.74 156.669 768.079 156.008C767.417 155.347 767.087 154.561 767.087 153.652V95.868C767.087 94.9587 767.417 94.1733 768.079 93.512C768.74 92.8507 769.525 92.52 770.435 92.52H792.135C793.044 92.52 793.829 92.8507 794.491 93.512C795.152 94.1733 795.483 94.9587 795.483 95.868V99.96C797.632 97.3973 800.525 95.3307 804.163 93.76C807.883 92.1067 811.851 91.28 816.067 91.28C822.845 91.28 828.549 93.6773 833.179 98.472C837.808 103.184 840.123 110.169 840.123 119.428Z" fill="url(#paint1_linear_0_1)"/>
<rect x="180" y="177" width="690" height="82" rx="16" fill="url(#paint2_linear_0_1)"/>
<path d="M344.224 241H335.072C334.261 241 333.579 240.765 333.024 240.296C332.512 239.784 332.213 239.208 332.128 238.568L326.24 197.8V197.608C326.24 197.224 326.368 196.904 326.624 196.648C326.923 196.349 327.264 196.2 327.648 196.2H339.552C340.96 196.2 341.728 196.776 341.856 197.928L344.032 215.976L346.656 207.976C347.083 206.739 347.808 206.12 348.832 206.12H355.36C356.384 206.12 357.109 206.739 357.536 207.976L360.16 215.912L362.336 197.928C362.464 196.776 363.232 196.2 364.64 196.2H376.544C376.928 196.2 377.248 196.349 377.504 196.648C377.803 196.904 377.952 197.224 377.952 197.608V197.8L372.064 238.568C371.979 239.208 371.659 239.784 371.104 240.296C370.592 240.765 369.931 241 369.12 241H359.968C358.645 241 357.771 240.424 357.344 239.272L352.096 226.152L346.848 239.272C346.421 240.424 345.547 241 344.224 241ZM399.708 228.52H419.42C419.889 228.52 420.294 228.691 420.636 229.032C420.977 229.373 421.148 229.779 421.148 230.248V239.272C421.148 239.741 420.977 240.147 420.636 240.488C420.294 240.829 419.889 241 419.42 241H386.076C385.606 241 385.201 240.829 384.86 240.488C384.518 240.147 384.348 239.741 384.348 239.272V197.928C384.348 197.459 384.518 197.053 384.86 196.712C385.201 196.371 385.606 196.2 386.076 196.2H418.908C419.377 196.2 419.782 196.371 420.124 196.712C420.465 197.053 420.636 197.459 420.636 197.928V206.952C420.636 207.421 420.465 207.827 420.124 208.168C419.782 208.509 419.377 208.68 418.908 208.68H399.708V212.712H417.5C417.969 212.712 418.374 212.883 418.716 213.224C419.057 213.565 419.228 213.971 419.228 214.44V222.76C419.228 223.229 419.057 223.635 418.716 223.976C418.374 224.317 417.969 224.488 417.5 224.488H399.708V228.52ZM452.144 212.2C452.613 211.645 452.848 210.984 452.848 210.216C452.848 209.448 452.613 208.765 452.144 208.168C451.717 207.528 451.077 207.208 450.224 207.208H444.848V213.032H450.224C451.077 213.032 451.717 212.755 452.144 212.2ZM444.848 223.72V229.992H450.8C451.781 229.992 452.506 229.672 452.976 229.032C453.488 228.349 453.744 227.603 453.744 226.792V226.728C453.744 225.917 453.466 225.213 452.912 224.616C452.4 224.019 451.696 223.72 450.8 223.72H444.848ZM452.464 241H430.576C430.106 241 429.701 240.829 429.36 240.488C429.018 240.147 428.848 239.741 428.848 239.272V197.928C428.848 197.459 429.018 197.053 429.36 196.712C429.701 196.371 430.106 196.2 430.576 196.2H451.824C457.882 196.2 462.341 197.309 465.2 199.528C468.101 201.704 469.552 205.011 469.552 209.448V209.64C469.552 211.475 469.018 213.117 467.952 214.568C466.885 215.976 465.712 217 464.432 217.64C466.138 218.323 467.568 219.539 468.72 221.288C469.914 222.995 470.512 224.872 470.512 226.92C470.512 236.307 464.496 241 452.464 241ZM497.513 196.2H515.945C522.174 196.2 527.294 197.757 531.305 200.872C535.358 203.944 537.385 208.253 537.385 213.8V223.336C537.385 229.139 535.422 233.533 531.497 236.52C527.572 239.507 522.409 241 516.009 241H497.513C497.044 241 496.638 240.829 496.297 240.488C495.956 240.147 495.785 239.741 495.785 239.272V197.928C495.785 197.459 495.956 197.053 496.297 196.712C496.638 196.371 497.044 196.2 497.513 196.2ZM511.785 208.68V228.52H515.945C517.396 228.52 518.548 228.093 519.401 227.24C520.297 226.344 520.745 225.043 520.745 223.336V213.8C520.745 210.387 519.145 208.68 515.945 208.68H511.785ZM559.77 228.52H579.482C579.951 228.52 580.357 228.691 580.698 229.032C581.039 229.373 581.21 229.779 581.21 230.248V239.272C581.21 239.741 581.039 240.147 580.698 240.488C580.357 240.829 579.951 241 579.482 241H546.138C545.669 241 545.263 240.829 544.922 240.488C544.581 240.147 544.41 239.741 544.41 239.272V197.928C544.41 197.459 544.581 197.053 544.922 196.712C545.263 196.371 545.669 196.2 546.138 196.2H578.97C579.439 196.2 579.845 196.371 580.186 196.712C580.527 197.053 580.698 197.459 580.698 197.928V206.952C580.698 207.421 580.527 207.827 580.186 208.168C579.845 208.509 579.439 208.68 578.97 208.68H559.77V212.712H577.562C578.031 212.712 578.437 212.883 578.778 213.224C579.119 213.565 579.29 213.971 579.29 214.44V222.76C579.29 223.229 579.119 223.635 578.778 223.976C578.437 224.317 578.031 224.488 577.562 224.488H559.77V228.52ZM587.758 210.28C587.758 205.928 589.55 202.387 593.134 199.656C596.761 196.925 601.497 195.56 607.342 195.56C613.23 195.56 618.03 196.989 621.742 199.848C625.497 202.707 627.374 205.693 627.374 208.808C627.374 209.192 627.225 209.533 626.926 209.832C626.67 210.088 626.371 210.216 626.03 210.216H613.23C612.249 210.216 611.353 209.853 610.542 209.128C609.731 208.403 608.643 208.04 607.278 208.04C605.23 208.04 604.206 208.637 604.206 209.832C604.206 210.472 604.697 211.005 605.678 211.432C606.702 211.859 608.579 212.243 611.31 212.584C617.667 213.395 622.19 214.888 624.878 217.064C627.609 219.197 628.974 222.461 628.974 226.856C628.974 231.208 626.969 234.771 622.958 237.544C618.99 240.275 613.785 241.64 607.342 241.64C600.899 241.64 595.843 240.317 592.174 237.672C588.505 235.027 586.67 231.805 586.67 228.008C586.67 227.624 586.798 227.304 587.054 227.048C587.353 226.749 587.694 226.6 588.078 226.6H600.238C601.134 226.6 602.115 227.027 603.182 227.88C604.291 228.733 605.806 229.16 607.726 229.16C610.926 229.16 612.526 228.563 612.526 227.368C612.526 226.6 611.95 226.024 610.798 225.64C609.646 225.213 607.47 224.787 604.27 224.36C593.262 222.909 587.758 218.216 587.758 210.28ZM649.819 241H636.763C636.294 241 635.888 240.829 635.547 240.488C635.206 240.147 635.035 239.741 635.035 239.272V197.928C635.035 197.459 635.206 197.053 635.547 196.712C635.888 196.371 636.294 196.2 636.763 196.2H649.819C650.288 196.2 650.694 196.371 651.035 196.712C651.376 197.053 651.547 197.459 651.547 197.928V239.272C651.547 239.741 651.376 240.147 651.035 240.488C650.694 240.829 650.288 241 649.819 241ZM682.824 213.992H700.424C700.893 213.992 701.298 214.163 701.64 214.504C701.981 214.845 702.152 215.251 702.152 215.72V224.04C702.152 229.672 700.146 234.024 696.136 237.096C692.125 240.125 686.77 241.64 680.072 241.64C673.416 241.64 668.168 240.168 664.328 237.224C660.488 234.237 658.568 229.779 658.568 223.848V213.096C658.568 207.421 660.53 203.091 664.456 200.104C668.381 197.075 673.608 195.56 680.136 195.56C686.706 195.56 692.018 196.947 696.072 199.72C700.125 202.451 702.152 205.821 702.152 209.832C702.152 210.216 702.002 210.557 701.704 210.856C701.448 211.112 701.128 211.24 700.744 211.24H686.6C685.746 211.24 685.128 211.005 684.744 210.536C683.89 209.427 683.25 208.787 682.824 208.616C681.842 208.232 680.946 208.04 680.136 208.04C676.85 208.04 675.208 209.64 675.208 212.84V223.72C675.208 227.347 676.957 229.16 680.456 229.16C684.04 229.16 685.832 227.624 685.832 224.552H682.824C682.354 224.552 681.949 224.381 681.608 224.04C681.266 223.699 681.096 223.293 681.096 222.824V215.72C681.096 215.251 681.266 214.845 681.608 214.504C681.949 214.163 682.354 213.992 682.824 213.992ZM736.231 196.2H747.815C748.284 196.2 748.689 196.371 749.031 196.712C749.372 197.053 749.543 197.459 749.543 197.928V239.272C749.543 239.741 749.372 240.147 749.031 240.488C748.689 240.829 748.284 241 747.815 241H737.703C736.593 241 735.719 240.509 735.079 239.528L724.263 223.208V239.272C724.263 239.741 724.092 240.147 723.751 240.488C723.409 240.829 723.004 241 722.535 241H710.951C710.481 241 710.076 240.829 709.735 240.488C709.393 240.147 709.223 239.741 709.223 239.272V197.928C709.223 197.459 709.393 197.053 709.735 196.712C710.076 196.371 710.481 196.2 710.951 196.2H721.062C722.257 196.2 723.132 196.691 723.687 197.672L734.503 215.4V197.928C734.503 197.459 734.673 197.053 735.015 196.712C735.356 196.371 735.761 196.2 736.231 196.2ZM773.208 228.52H792.92C793.389 228.52 793.794 228.691 794.136 229.032C794.477 229.373 794.648 229.779 794.648 230.248V239.272C794.648 239.741 794.477 240.147 794.136 240.488C793.794 240.829 793.389 241 792.92 241H759.576C759.106 241 758.701 240.829 758.36 240.488C758.018 240.147 757.848 239.741 757.848 239.272V197.928C757.848 197.459 758.018 197.053 758.36 196.712C758.701 196.371 759.106 196.2 759.576 196.2H792.408C792.877 196.2 793.282 196.371 793.624 196.712C793.965 197.053 794.136 197.459 794.136 197.928V206.952C794.136 207.421 793.965 207.827 793.624 208.168C793.282 208.509 792.877 208.68 792.408 208.68H773.208V212.712H791C791.469 212.712 791.874 212.883 792.216 213.224C792.557 213.565 792.728 213.971 792.728 214.44V222.76C792.728 223.229 792.557 223.635 792.216 223.976C791.874 224.317 791.469 224.488 791 224.488H773.208V228.52ZM843.564 238.888C843.692 239.144 843.756 239.421 843.756 239.72C843.756 240.019 843.606 240.317 843.308 240.616C843.052 240.872 842.732 241 842.348 241H829.228C827.905 241 826.988 240.424 826.476 239.272L820.972 227.048H818.348V239.272C818.348 239.741 818.177 240.147 817.836 240.488C817.494 240.829 817.089 241 816.62 241H804.076C803.606 241 803.201 240.829 802.86 240.488C802.518 240.147 802.348 239.741 802.348 239.272V197.928C802.348 197.459 802.518 197.053 802.86 196.712C803.201 196.371 803.606 196.2 804.076 196.2H823.02C829.164 196.2 833.964 197.587 837.42 200.36C840.876 203.091 842.604 207.037 842.604 212.2C842.604 217.32 840.3 221.352 835.692 224.296L843.564 238.888ZM818.348 208.104V214.888H823.02C823.958 214.888 824.684 214.589 825.196 213.992C825.708 213.352 825.964 212.563 825.964 211.624C825.964 210.685 825.708 209.875 825.196 209.192C824.726 208.467 824.001 208.104 823.02 208.104H818.348Z" fill="white"/>
<path d="M250.94 293.051C250.94 296.903 206.34 300 151.333 300C96.3262 300 51.7261 296.873 51.7261 293.051C51.7261 289.229 96.3262 286.102 151.333 286.102C206.34 286.102 250.94 289.199 250.94 293.051Z" fill="black" fill-opacity="0.5"/>
<path d="M45.0855 146.689C48.0589 13.9184 136.268 1.06222 144.752 0.129028C106.844 1.68713 71.02 17.9211 44.825 45.4116C18.63 72.902 4.10916 109.503 4.32114 147.504C4.53311 185.506 19.4614 221.942 45.9614 249.138C72.4614 276.333 108.465 292.165 146.387 293.299C144.891 293.19 42.0428 285.099 45.0855 146.689Z" fill="url(#paint3_linear_0_1)"/>
<path d="M192.702 138.479C193.693 23.4687 157.696 1.14166 155.922 0.1092C154.168 0.0496345 152.403 0 150.629 0C148.855 0 147.091 -3.18053e-06 145.327 0.1092C143.573 1.10195 107.556 23.4488 108.557 138.479C109.548 256.388 128.002 276.899 146.427 293.349C147.825 293.349 149.222 293.418 150.629 293.418C152.037 293.418 153.434 293.418 154.832 293.349C173.256 276.899 191.681 256.388 192.702 138.479Z" fill="url(#paint4_linear_0_1)"/>
<path d="M297.066 146.689C297.064 108.808 282.43 72.3957 256.23 45.0772C230.03 17.7587 194.295 1.65188 156.507 0.129028C165 1.06222 253.239 13.9581 256.163 146.689C259.216 285.168 156.269 293.2 154.861 293.299C192.949 292.196 229.107 276.266 255.659 248.892C282.21 221.518 297.064 184.855 297.066 146.689Z" fill="url(#paint5_linear_0_1)"/>
<path d="M108.557 138.479C107.565 23.4488 143.573 1.13167 145.327 0.109131H144.752C136.308 1.04232 48.0095 13.8985 45.0857 146.669C42.043 285.099 144.891 293.19 146.387 293.299C128.042 276.899 109.577 256.388 108.557 138.479Z" fill="url(#paint6_linear_0_1)"/>
<path d="M256.163 146.689C253.24 13.9581 164.981 1.06222 156.507 0.129028H155.922C157.696 1.12178 193.703 23.4885 192.702 138.499C191.711 256.408 173.257 276.919 154.832 293.368C156.269 293.2 259.216 285.168 256.163 146.689Z" fill="url(#paint7_linear_0_1)"/>
<path d="M297.711 114.018C297.711 114.018 278.681 108.2 216.895 112.797C216.895 112.797 189.907 115.497 177.498 120.093C169.181 122.989 160.515 124.762 151.729 125.365H148.271C139.485 124.762 130.819 122.989 122.502 120.093C110.093 115.497 83.1048 112.797 83.1048 112.797C21.3188 108.2 2.28947 114.018 2.28947 114.018C2.28947 114.018 0 114.425 0 116.311C0 118.197 1.17942 125.911 1.17942 125.911C1.17942 125.911 1.45694 129.147 1.85338 132.592C2.24983 136.037 4.48974 136.037 4.48974 136.037C5.49061 136.216 6.42747 136.654 7.20787 137.307C7.98827 137.96 8.58523 138.805 8.93984 139.76C10.4562 143.205 13.0728 155.554 13.0728 155.554C21.7153 195.691 28.326 201.638 49.2286 206.096C70.1312 210.553 87.4162 207.982 105.722 199.742C124.028 191.502 136.347 155.961 139.043 149.737C141.739 143.512 149.836 143.78 149.836 143.78L149.955 143.681C149.987 143.719 150.024 143.753 150.064 143.78C150.064 143.78 158.152 143.512 160.858 149.737C163.563 155.961 175.833 191.502 194.179 199.742C212.524 207.982 229.799 210.553 250.672 206.096C271.545 201.638 278.285 195.642 286.917 155.554C286.917 155.554 289.544 143.254 291.03 139.809C291.385 138.855 291.982 138.009 292.762 137.357C293.543 136.704 294.48 136.266 295.481 136.087C295.481 136.087 297.711 136.087 298.117 132.642C298.523 129.197 298.791 125.96 298.791 125.96C298.791 125.96 300 118.257 300 116.361C300 114.464 297.711 114.018 297.711 114.018Z" fill="#111111"/>
<path d="M259.255 121.92C259.255 121.92 219.799 115.03 187.419 126.983C187.419 126.983 166.973 134.081 177.905 161.044C188.837 188.008 195.913 201.181 231.732 200.169C267.551 199.156 273.626 182.299 274.845 156.378C276.065 130.458 273.428 125.166 259.255 121.92Z" fill="url(#paint8_linear_0_1)"/>
<path d="M40.7448 121.92C40.7448 121.92 80.211 115.03 112.591 126.983C112.591 126.983 133.027 134.081 122.095 161.044C111.163 188.008 104.087 201.221 68.2681 200.169C32.4492 199.116 26.3737 182.359 25.1645 156.378C23.9554 130.398 26.5818 125.166 40.7448 121.92Z" fill="url(#paint9_linear_0_1)"/>
<path opacity="0.34" d="M259.255 121.92C250.799 120.624 242.259 119.961 233.704 119.934L193.802 189.526C201.513 197.131 212.465 200.705 231.732 200.159C267.551 199.166 273.626 182.289 274.845 156.368C276.064 130.448 273.428 125.166 259.255 121.92ZM112.57 126.983C103.52 123.777 94.1095 121.703 84.5517 120.808L42.251 194.57C48.4355 197.895 56.8302 199.841 68.2677 200.169C104.087 201.162 111.173 188.008 122.095 161.044C133.017 134.081 112.59 126.983 112.59 126.983H112.57Z" fill="url(#paint10_linear_0_1)"/>
<defs>
<linearGradient id="paint0_linear_0_1" x1="324" y1="141.5" x2="429" y2="141.5" gradientUnits="userSpaceOnUse">
<stop stop-color="#F9304D"/>
<stop offset="1" stop-color="#F63E72"/>
</linearGradient>
<linearGradient id="paint1_linear_0_1" x1="428" y1="145.5" x2="846" y2="145.5" gradientUnits="userSpaceOnUse">
<stop stop-color="#39C93E"/>
<stop offset="1" stop-color="#04A63D"/>
</linearGradient>
<linearGradient id="paint2_linear_0_1" x1="180" y1="218" x2="870" y2="218" gradientUnits="userSpaceOnUse">
<stop stop-color="#F9304D"/>
<stop offset="1" stop-color="#F63E72"/>
</linearGradient>
<linearGradient id="paint3_linear_0_1" x1="75.2847" y1="316.38" x2="75.2847" y2="-23.1411" gradientUnits="userSpaceOnUse">
<stop stop-color="#00A33D"/>
<stop offset="1" stop-color="#3ECC3E"/>
</linearGradient>
<linearGradient id="paint4_linear_0_1" x1="150.629" y1="316.38" x2="150.629" y2="-23.1411" gradientUnits="userSpaceOnUse">
<stop stop-color="#00A33D"/>
<stop offset="1" stop-color="#3ECC3E"/>
</linearGradient>
<linearGradient id="paint5_linear_0_1" x1="225.964" y1="316.38" x2="225.964" y2="-23.1411" gradientUnits="userSpaceOnUse">
<stop stop-color="#00A33D"/>
<stop offset="1" stop-color="#3ECC3E"/>
</linearGradient>
<linearGradient id="paint6_linear_0_1" x1="95.7217" y1="-26.1194" x2="95.7217" y2="320.351" gradientUnits="userSpaceOnUse">
<stop stop-color="#47ED35"/>
<stop offset="1" stop-color="#3ECC3E"/>
</linearGradient>
<linearGradient id="paint7_linear_0_1" x1="205.527" y1="-26.1194" x2="205.527" y2="320.351" gradientUnits="userSpaceOnUse">
<stop stop-color="#47ED35"/>
<stop offset="1" stop-color="#3ECC3E"/>
</linearGradient>
<linearGradient id="paint8_linear_0_1" x1="174.689" y1="160.084" x2="275.11" y2="160.084" gradientUnits="userSpaceOnUse">
<stop stop-color="#F9304D"/>
<stop offset="1" stop-color="#F63E72"/>
</linearGradient>
<linearGradient id="paint9_linear_0_1" x1="24.9033" y1="160.086" x2="125.312" y2="160.086" gradientUnits="userSpaceOnUse">
<stop stop-color="#F9304D"/>
<stop offset="1" stop-color="#F63E72"/>
</linearGradient>
<linearGradient id="paint10_linear_0_1" x1="158.677" y1="200.218" x2="158.677" y2="119.944" gradientUnits="userSpaceOnUse">
<stop stop-color="#F9304D"/>
<stop offset="0.12" stop-color="#F93551"/>
<stop offset="0.26" stop-color="#FA435E"/>
<stop offset="0.41" stop-color="#FA5B72"/>
<stop offset="0.57" stop-color="#FB7C8F"/>
<stop offset="0.73" stop-color="#FCA7B4"/>
<stop offset="0.9" stop-color="#FEDBE0"/>
<stop offset="1" stop-color="white"/>
</linearGradient>
</defs>
</svg>
