<svg width="300" height="300" viewBox="0 0 300 300" fill="none" xmlns="http://www.w3.org/2000/svg">
<path d="M250.94 293.051C250.94 296.903 206.34 300 151.333 300C96.3262 300 51.7261 296.873 51.7261 293.051C51.7261 289.229 96.3262 286.102 151.333 286.102C206.34 286.102 250.94 289.199 250.94 293.051Z" fill="black" fill-opacity="0.5"/>
<path d="M45.0855 146.689C48.0589 13.9184 136.268 1.06222 144.752 0.129028C106.844 1.68713 71.02 17.9211 44.825 45.4116C18.63 72.902 4.10916 109.503 4.32114 147.504C4.53311 185.506 19.4614 221.942 45.9614 249.138C72.4614 276.333 108.465 292.165 146.387 293.299C144.891 293.19 42.0428 285.099 45.0855 146.689Z" fill="url(#paint0_linear_74_7860)"/>
<path d="M192.702 138.479C193.693 23.4687 157.696 1.14166 155.922 0.1092C154.168 0.0496345 152.403 0 150.629 0C148.855 0 147.091 -3.18053e-06 145.327 0.1092C143.573 1.10195 107.556 23.4488 108.557 138.479C109.548 256.388 128.002 276.899 146.427 293.349C147.825 293.349 149.222 293.418 150.629 293.418C152.037 293.418 153.434 293.418 154.832 293.349C173.256 276.899 191.681 256.388 192.702 138.479Z" fill="url(#paint1_linear_74_7860)"/>
<path d="M297.066 146.689C297.064 108.808 282.43 72.3957 256.23 45.0772C230.03 17.7587 194.295 1.65188 156.507 0.129028C165 1.06222 253.239 13.9581 256.163 146.689C259.216 285.168 156.269 293.2 154.861 293.299C192.949 292.196 229.107 276.266 255.659 248.892C282.21 221.518 297.064 184.855 297.066 146.689Z" fill="url(#paint2_linear_74_7860)"/>
<path d="M108.557 138.479C107.565 23.4488 143.573 1.13167 145.327 0.109131H144.752C136.308 1.04232 48.0095 13.8985 45.0857 146.669C42.043 285.099 144.891 293.19 146.387 293.299C128.042 276.899 109.577 256.388 108.557 138.479Z" fill="url(#paint3_linear_74_7860)"/>
<path d="M256.163 146.689C253.24 13.9581 164.981 1.06222 156.507 0.129028H155.922C157.696 1.12178 193.703 23.4885 192.702 138.499C191.711 256.408 173.257 276.919 154.832 293.368C156.269 293.2 259.216 285.168 256.163 146.689Z" fill="url(#paint4_linear_74_7860)"/>
<path d="M297.711 114.018C297.711 114.018 278.681 108.2 216.895 112.797C216.895 112.797 189.907 115.497 177.498 120.093C169.181 122.989 160.515 124.762 151.729 125.365H148.271C139.485 124.762 130.819 122.989 122.502 120.093C110.093 115.497 83.1048 112.797 83.1048 112.797C21.3188 108.2 2.28947 114.018 2.28947 114.018C2.28947 114.018 0 114.425 0 116.311C0 118.197 1.17942 125.911 1.17942 125.911C1.17942 125.911 1.45694 129.147 1.85338 132.592C2.24983 136.037 4.48974 136.037 4.48974 136.037C5.49061 136.216 6.42747 136.654 7.20787 137.307C7.98827 137.96 8.58523 138.805 8.93984 139.76C10.4562 143.205 13.0728 155.554 13.0728 155.554C21.7153 195.691 28.326 201.638 49.2286 206.096C70.1312 210.553 87.4162 207.982 105.722 199.742C124.028 191.502 136.347 155.961 139.043 149.737C141.739 143.512 149.836 143.78 149.836 143.78L149.955 143.681C149.987 143.719 150.024 143.753 150.064 143.78C150.064 143.78 158.152 143.512 160.858 149.737C163.563 155.961 175.833 191.502 194.179 199.742C212.524 207.982 229.799 210.553 250.672 206.096C271.545 201.638 278.285 195.642 286.917 155.554C286.917 155.554 289.544 143.254 291.03 139.809C291.385 138.855 291.982 138.009 292.762 137.357C293.543 136.704 294.48 136.266 295.481 136.087C295.481 136.087 297.711 136.087 298.117 132.642C298.523 129.197 298.791 125.96 298.791 125.96C298.791 125.96 300 118.257 300 116.361C300 114.464 297.711 114.018 297.711 114.018Z" fill="#111111"/>
<path d="M259.255 121.92C259.255 121.92 219.799 115.03 187.419 126.983C187.419 126.983 166.973 134.081 177.905 161.044C188.837 188.008 195.913 201.181 231.732 200.169C267.551 199.156 273.626 182.299 274.845 156.378C276.065 130.458 273.428 125.166 259.255 121.92Z" fill="url(#paint5_linear_74_7860)"/>
<path d="M40.7448 121.92C40.7448 121.92 80.211 115.03 112.591 126.983C112.591 126.983 133.027 134.081 122.095 161.044C111.163 188.008 104.087 201.221 68.2681 200.169C32.4492 199.116 26.3737 182.359 25.1645 156.378C23.9554 130.398 26.5818 125.166 40.7448 121.92Z" fill="url(#paint6_linear_74_7860)"/>
<path opacity="0.34" d="M259.255 121.92C250.799 120.624 242.259 119.961 233.704 119.934L193.802 189.526C201.513 197.131 212.465 200.705 231.732 200.159C267.551 199.166 273.626 182.289 274.845 156.368C276.064 130.448 273.428 125.166 259.255 121.92ZM112.57 126.983C103.52 123.777 94.1095 121.703 84.5517 120.808L42.251 194.57C48.4355 197.895 56.8302 199.841 68.2677 200.169C104.087 201.162 111.173 188.008 122.095 161.044C133.017 134.081 112.59 126.983 112.59 126.983H112.57Z" fill="url(#paint7_linear_74_7860)"/>
<defs>
<linearGradient id="paint0_linear_74_7860" x1="75.2847" y1="316.38" x2="75.2847" y2="-23.1411" gradientUnits="userSpaceOnUse">
<stop stop-color="#00A33D"/>
<stop offset="1" stop-color="#3ECC3E"/>
</linearGradient>
<linearGradient id="paint1_linear_74_7860" x1="150.629" y1="316.38" x2="150.629" y2="-23.1411" gradientUnits="userSpaceOnUse">
<stop stop-color="#00A33D"/>
<stop offset="1" stop-color="#3ECC3E"/>
</linearGradient>
<linearGradient id="paint2_linear_74_7860" x1="225.964" y1="316.38" x2="225.964" y2="-23.1411" gradientUnits="userSpaceOnUse">
<stop stop-color="#00A33D"/>
<stop offset="1" stop-color="#3ECC3E"/>
</linearGradient>
<linearGradient id="paint3_linear_74_7860" x1="95.7217" y1="-26.1194" x2="95.7217" y2="320.351" gradientUnits="userSpaceOnUse">
<stop stop-color="#47ED35"/>
<stop offset="1" stop-color="#3ECC3E"/>
</linearGradient>
<linearGradient id="paint4_linear_74_7860" x1="205.527" y1="-26.1194" x2="205.527" y2="320.351" gradientUnits="userSpaceOnUse">
<stop stop-color="#47ED35"/>
<stop offset="1" stop-color="#3ECC3E"/>
</linearGradient>
<linearGradient id="paint5_linear_74_7860" x1="174.689" y1="160.084" x2="275.11" y2="160.084" gradientUnits="userSpaceOnUse">
<stop stop-color="#F9304D"/>
<stop offset="1" stop-color="#F63E72"/>
</linearGradient>
<linearGradient id="paint6_linear_74_7860" x1="24.9033" y1="160.086" x2="125.312" y2="160.086" gradientUnits="userSpaceOnUse">
<stop stop-color="#F9304D"/>
<stop offset="1" stop-color="#F63E72"/>
</linearGradient>
<linearGradient id="paint7_linear_74_7860" x1="158.677" y1="200.218" x2="158.677" y2="119.944" gradientUnits="userSpaceOnUse">
<stop stop-color="#F9304D"/>
<stop offset="0.12" stop-color="#F93551"/>
<stop offset="0.26" stop-color="#FA435E"/>
<stop offset="0.41" stop-color="#FA5B72"/>
<stop offset="0.57" stop-color="#FB7C8F"/>
<stop offset="0.73" stop-color="#FCA7B4"/>
<stop offset="0.9" stop-color="#FEDBE0"/>
<stop offset="1" stop-color="white"/>
</linearGradient>
</defs>
</svg>
